<?xml version="1.0" encoding="utf-8"?>
<!-- Generator: Adobe Illustrator 19.0.1, SVG Export Plug-In . SVG Version: 6.00 Build 0)  -->
<svg version="1.1" id="Layer_1" xmlns="http://www.w3.org/2000/svg" xmlns:xlink="http://www.w3.org/1999/xlink" x="0px" y="0px"
	 viewBox="0 0 290.2 98.2" style="enable-background:new 0 0 290.2 98.2;" xml:space="preserve">
<style type="text/css">
	.st0{fill:#A33F90;}
	.st1{fill:#F99D1C;}
</style>
<g>
	<g>
		<path class="st0" d="M93.1,49.1l-0.5,0.5c-1.1,0-2.7-1.2-2.7-1.8c0-0.1,0.1-0.6,0.1-0.6C91.3,47.1,93.1,47.6,93.1,49.1z
			 M94.8,57.4C91.9,52.5,86.1,66.1,94.8,57.4C94.2,56.4,93.6,58.6,94.8,57.4z M114.9,55.5C114.9,55.5,115,55.5,114.9,55.5
			C115,55.4,114.9,55.5,114.9,55.5z M155.2,60.5c0,5.8-0.5,6.5-3.1,12.6c-0.6,2-5.6,6.6-6.2,6.9c0,0-0.7-0.1-1-0.1
			c-0.5,0-0.9,0.7-0.9,1.6v0.1c-3.2,1.8-6.5,3.2-10,4.2c-1.9,0.3-4.2,1.3-11.8,1.3c0-0.8-0.2-5.1-0.2-6c0-0.2-0.5-1.4-0.5-1.6
			c-0.2-1.4,0.8-0.8,1.4-1.6c0-1-0.7-2.2-1.8-2.2c-0.9,0,0,2.2-1.5,2.2c0,2.1-0.3,3.7,0.5,3.7l-0.5,0.5v4.2l0.5,0.5
			c-0.4,0-2.3,0.1-2.7,0.1c-2.7,0-3.1,0-6-0.6c-2.5,0-4.8-1.5-7.1-2.1c-3.4-1.6-5.3-2.7-7.7-4.2c-1.9-1.2-7-6.9-7.6-8.5
			C87.7,69,87,68.1,87,67c0-0.1,0.2-0.7,0.5-0.7l8.8-3.6l0.6-3.6h0.2c0.5,0,1.5,0.6,1.7,1.1c0-0.5,1.1-0.7,1.8-0.7v1.5l6-2.5h0.5
			c2.2,2.4,4,4.9,6.5,6.3v-6.2c0-1.1-3.3-0.4-4.1-1.2c-0.6-1-1.2-2.5-1.2-3.2c0-0.4,0.8-0.6,1.2-0.6c1.1,0,2.1,2.5,3.5,2.5
			c0.6,0,1.3-0.2,1.9-0.6c0,0,0,0.1,0,0.2c0,1.6,2.1,0.2,2.1,2.8c0,1.8-2.9,2.9-2.5,4.2c0.4,1,0.7,1.7,0.6,1.8l-0.2,0.7c0,0,0,0,0,0
			c2,1.3,4.9,1.2,6.2,1.6c-0.3,0,3.5-0.5,4.3-0.5c2.9-0.9,3.9-2.6,3.9-4.4c0-2.1-3-5.2-7.7-6.1c-7.6-2.5-13-2.9-20.2-6.9
			c0.6,0,0.7-0.7,0.7-1.2c0-0.5-1.2-1.5-1.8-1.5h-1.3c-0.7,0-0.4-0.5-2.3-0.5c-0.1-0.1-0.2-0.2-0.3-0.3c-0.1,0.6-0.3,1.2-0.6,1.8
			c-0.5-0.4-0.7-0.4-0.7-1.2c0-0.5,0.1-1,0.4-1.5c-1.7-1.8-3.1-3.7-4-5.6c-1.5-3.5-1.5-4.2-1.5-9c0-3.6,0-4.2,0.7-6.3
			c0.8-2.9,1.5-5,4.6-8.4v-3c-1.5,0-2.1,2.5-2.1,4.2c-0.4-1.3-0.5-3.3-1.3-3.6c0.5,0,0.7-0.6,0.7-1.2c0-0.4-0.2-1.2-0.7-1.2L93,9.7
			c0.1,0,0.7,0.1,1.2,0.1c0.8,0,1.1-1.1,1.1-2.3V7.3h1.3c0.4,0,0.6,3.9,0.6,4.7c0,0.3,0,0.6,0,0.9c0.7-0.7,1.6-1.6,3.1-2.5
			c0.6,0.2,1.3,0.2,1.3,0.7c-0.8,1.1-1.5,1.6-1.9,2.7v0.6c0.1,1,0.4,4.2,1,4.2c0.4,0.1,1.5-0.6,1.5-0.6v-7.9c-0.3,0-0.7-0.1-1-0.2
			c1.2-0.7,2.7-1.4,4.6-2.1c1.5-0.8,3.1-0.9,5-1.4c0.1,1,0.3,2,0.6,3c0.5-1.2,0.6-1.8,0.6-3.4c0.3-0.1,0.6-0.2,0.9-0.3
			c2.4-0.5,5.3-0.8,9.4-0.8c4,0,8.4-0.1,12.7,1.4c1.1,0.1,2.3,0.6,3.3,1c5.8,2.4,8.2,3.9,12.4,9.5c0.9,0.6,3.4,4.9,3.4,6.1
			c-5.9,2.3-13.4,5.2-21.1,8.1c-2.3-3.1-4-3.9-8.1-5.2l-0.5-1c-0.4,1.2-3.2,0.8-5,0.8c-3.2,1.5-4.2,2.6-4.2,4.9
			c0.5,1.9,1.4,2.6,3.4,3.7c3.4,1.4,6.5,2.1,10.1,3.2c0.8,0,2.5,0.9,4.2,0.9c1.9,0.7,5.3,1.5,6.8,2.2c1.6,0.5,3.5,1.6,5.4,2.7
			c0.2-1.1,1.8-1.9,3.3-2.4c-0.7,1.1-1.2,2.2-1.4,3.5c1,0.6,4.8,4.2,5.7,5.8C154,52.3,155.2,54,155.2,60.5z M138.2,20.7
			c0,0.9,1.4,1.5,1.7,1.5c0-0.9-0.2-2.3-0.7-2.3C138.9,19.8,138.2,20.4,138.2,20.7z M137.5,9.9c0,0.3,0.1,0.5,0.2,0.5
			c0.2,0,0.3-0.3,0.3-0.5c0-0.2-0.1-0.5-0.2-0.5C137.6,9.3,137.5,9.5,137.5,9.9z M125.4,16.8c0,0.2,0.2,0.4,0.5,0.4
			c0.1,0,0.3-0.2,0.3-0.4c0-0.3-0.2-0.6-0.3-0.6C125.6,16.2,125.4,16.5,125.4,16.8z M102.7,20.4c-0.7,0.6-1.8,0.7-3.3,0.7
			c0,2.3,1.2,2.7,3.3,2.7V20.4z M107.6,21c-0.8-2.4-0.6-5.9-0.6-9.1c0-0.6-0.8-0.7-1.3-0.7c0,0.4,0,2.2,0.1,2.5
			c0,0.1,0.7,0.5,0.7,0.6c-0.1,1.9,0.2,3.6-0.7,3.6v5.2C107,23.2,107.6,22.2,107.6,21z M111.8,17.4c1.1-3.3,2.3-3.4,4.1-3.4
			c0-0.4-1-3.3-2.3-3.3c-0.6,0-2.3,1.5-2.3,2.1v0.4C111.3,13.9,111.8,16.8,111.8,17.4z M112,47.9c0,3.3,2.1,3.4,3,4.4
			C115,47.9,115.4,47.9,112,47.9z M118.8,45.8c0,0.1,0.2,0.4,0.4,0.4c0.2,0,0.4-0.3,0.4-0.4c0-0.3-0.2-0.6-0.4-0.6
			C119,45.2,118.8,45.5,118.8,45.8z M119,46.8c0-0.2,0-0.5-0.3-0.5c-0.3,0-0.5,0.3-0.5,0.5c0,0.2,0.2,0.5,0.5,0.5
			C119,47.3,119,47,119,46.8z M120.7,51.5c0-0.1-0.1-0.8-0.2-1c-1.3,0.7-1.3,2.6-1.3,3.8C120.1,53.5,120.7,52.6,120.7,51.5z
			 M121.2,69.9c0-0.3-0.1-1.3-0.1-1.6c-0.5,0-1.8,0.5-1.9,1.2c0,0-0.1,0-0.1,0.2c0,1.3,0.4,2.8,1.4,2.8
			C121.1,72.5,121.2,71.3,121.2,69.9z M142.4,48.3h0.7v-2.1C142.6,46.8,142.4,47.4,142.4,48.3z M129.6,45.5c0.7,0,1.1-0.2,1.5-1.4
			c0.1-0.5-0.4-1-0.8-1C129.5,43.1,129.6,44.8,129.6,45.5z M128.8,79.5c-0.9,0-1.3,0.7-1.3,1.6h1.3V79.5z M142.7,73.9
			c0-1-0.2-2.1-0.6-2.1h-4.8c0-0.5-0.7-0.9-0.7-0.8c-0.3,0-0.4,0.4-2.7,1.2c-1.7,0-1.5-1-1.9-2.6c-0.7,0.6-0.9,2.4-1.5,3
			c-1,1.2-1.4,0.4-1.4,1.6c0,0.7,0.2,0.7,0.6,1.2c2.9,0,3.5-1.7,5.8-1.7c1.5,0,5.4,0.4,6.1,0.5l1,1.2
			C142.6,75,142.7,74.1,142.7,73.9z M145.5,77.3c0-0.9-0.5-1-1.5-1c-0.1,0-0.8,0.1-1,0.1c0.4,1,0.6,2.1,1.4,2.5
			C145.2,78.6,145.5,77.9,145.5,77.3z M143.9,35.6c0-1.3,0.4-2.4,1.1-3.5c0,0,0,0,0,0.1c0,0,0,0,0-0.1c-0.5-0.8,2.4,0.4,3,2.8
			C146.4,34.3,145.3,36.4,143.9,35.6z M144.8,32.5C144.8,32.6,144.8,32.6,144.8,32.5L144.8,32.5z M144.9,32.4c0,0,0-0.1,0.1-0.2
			C144.9,32.3,144.9,32.3,144.9,32.4z M152.3,35c0.1,0,0.1,0,0.2,0C152.5,35,152.4,35,152.3,35z M151.2,34.8
			C151.2,34.8,151.2,34.8,151.2,34.8C151.2,34.8,151.2,34.8,151.2,34.8z M151.3,34.8C151.3,34.8,151.3,34.8,151.3,34.8
			C151.3,34.8,151.3,34.8,151.3,34.8z M152.5,35c-2.4-0.3-4.1,0.6-5.1,2.5C152.6,40.8,150.9,36.6,152.5,35z M151.2,34.8
			C151.1,34.7,151.1,34.7,151.2,34.8L151.2,34.8z M151.6,34.8c-0.1,0-0.2,0-0.3-0.1C151.4,34.8,151.5,34.8,151.6,34.8z M152.2,35
			c0,0-0.1,0-0.1,0C152.2,34.9,152.2,35,152.2,35z M152.3,35C152.3,35,152.3,35,152.3,35C152.3,35,152.3,35,152.3,35z M152.1,34.9
			c0,0-0.1,0-0.1,0C152,34.9,152.1,34.9,152.1,34.9z M151.6,34.8c0.1,0,0.2,0,0.3,0.1C151.7,34.9,151.6,34.8,151.6,34.8z
			 M151.9,34.9c0,0,0.1,0,0.1,0C152,34.9,151.9,34.9,151.9,34.9z"/>
		<path class="st1" d="M169,93c-0.3,0-1.4,0.1-1.7,0.1c-1.5-0.1-2,0.1-2.9-0.8c-0.6-0.5-0.5-2.1-1.1-3.4c0.9-0.2,1.8-0.8,1.8-1.3
			c-0.3-0.7-0.8-1.1-1.1-1.6c-0.5,0-0.8,0.5-1,1v1c0,0.2-0.1,1-0.5,0.7c-0.1,0-0.6-0.1-0.9-0.3c-0.3-1.3-0.5-3.1-0.7-4
			c-0.3-1-0.8-4.9-1.6-4.9h-1.2l-2-0.3l-0.3,0.3H143c-0.2-0.2-0.2-0.3-0.5-0.3h-0.4c-0.1,0-0.3-0.3-0.4-0.3c0.1,0.2-2.3,0.4-2.3,1
			c-2.3-0.4-2.5-0.6-3.7-2.1c-0.3-0.3-0.4-0.8-0.4-2.1c0-1.2,0.1-4.3,0.4-5.3c0.3-1,1.6-3.4,2.3-3.4c1,0,0.7,0.8,1.9,0.8
			c0.8,0,0.9-1.2,2.2-2.4c0.3,0,0.5,0.1,0.9-0.4c-0.8,0-1.3-1.1-1.3-1.5c0-1.1,4.4-4.6,4.4-4.6v-0.3c0.1-0.2,0.8-0.7,0.8-0.7h0.3
			c0.8-0.6,2.3-0.3,2.3-1.2c0-0.1-0.3-0.7-0.3-0.8l0.7-0.6c1.1-1.2,9.6-10.3,10.7-11.4c0.3-0.5,0.6-0.7,1-0.7c2.6-2.6,4.5-4.7,6-4.7
			c6.3,0,7.1-0.3,10.1,0.4c2.5,0,2.5,3.6,2.5,6c0,4.8,0,4.7-1,6.4c-0.5,0.6-0.8,0.7-1.4,0.7c-0.7,0-0.8-0.1-1.4-0.4l-1,1.8l0.3,0.3
			l2.4,1.4v1.3h-2.7c-0.2,0-0.4,1-0.4,1.2c0,1,0.3,1.2,0.9,1.2c1.5,0,0.7-1.2,2.8-1.2c0.2,0,1,0.1,1.1,0.1l0.3,0.3
			c0,0.1,0.1,0.8,0.1,1c0,1.2-0.1,2.4-1,2.4c-0.1,0-0.7-0.3-0.8-0.3c-0.8,0-1.2,0.5-1.7,1c-0.1,0.3,0,0.5,1,1v1.7h-1
			c-0.5-1.8-0.9-3-2-3c-0.1,0.1,0.1,0.6,0.3,1.3c0.7,1.6,0.8,2.9,1.3,4.1c0.5,0.6,1,2,1.2,2c-0.1,0.1,1-0.1,1.2-0.3
			c-0.3-0.5-0.4-1.5-0.4-2.2c0-0.9-0.1-1.2,1.2-1.2c1.9,0-0.1,1.5,2.2,2.7c0,0.7,0.5,1.1,2,1.1c0.4,0,0.9,0,1-0.1
			c0.4,0.3,2.1,1.6,2.4,2c0.4,0.4,0.5,1.2,0.6,2c0,0.3,0.1,2.5-0.3,5.1c0.1,0-1.8,0.3-3.1,0.7c-0.1,0-1.2,0.6-1.3,0.7
			c-1.2,0.4-2.1,0.1-3,1c0,0.2,0.1,0.7,0.1,1.2c0,1-0.2,2.9-0.4,4.2l-0.1,0.1c-0.8,0-0.8-1.2-1.6-2.7c-0.7-1.4-0.6-3.7-1.4-3.7
			c-0.6,0.4-1.6,5.1-1.6,5.3c-1.2,2.4-0.3,3.8-1.7,5.7c0.4,0.8,1,0.8,1,1.9c0,0.3-0.1,1.2-1,1.2c-0.9,0-1.4-0.3-1.7-1
			c0,0,0.1-0.2,0.1-0.3C170,92.1,169.2,92.4,169,93z M140.6,71.1c1,0,1.4-0.4,2.1-1.2c-0.1-0.9-0.1-1-0.8-1
			C140.5,69,140.6,70.4,140.6,71.1z M156.9,69c0.8,0,1.2-0.1,1.6-0.4c1.4,0,1.5-1.4,2.4-2.3v-6.5c0-0.1-1-1-1.2-1
			c0-0.1-1.4,0.5-1.5,0.7l-6.6,6.8c0,0-0.1,0.3-0.1,0.4c0,0.8,0.1,1,0.8,1c0.7,0.8,2.3,1,3.6,1C155.8,68.9,156.2,69,156.9,69z
			 M162.6,75.6c0.4,0.8,0,2.1,1,2.1c0.3,0,0.8-0.1,0.8-0.4v-4.7c0-0.3-1.5-1.3-1.7-1.3c-0.5,0.5-1.2,1.8-1.2,2
			C161.4,73.4,162.3,74.9,162.6,75.6z M163.6,52.8c1,0.6,2.7-2.6,2.4-2.5c0-0.3-0.8-1.6-1-2.2c0.2-1.2,2.1-2.3,2.1-3.4
			c0-0.3-1.3-1.5-1.8-1.5v0.8c-0.3-0.2-0.7-0.4-0.8-0.4c-0.1,0-1.2,1-1.5,1.4c0,2.1,0,4.4,0.3,7.5L163.6,52.8z M163.6,61.8
			c0.5,0,1.2,1.9,2.1,1.9c0-0.5-0.7-2.2-1.1-2.2c-0.1,0-0.2,0.1-0.3,0.1c0-0.5,0-1.6,0.3-2.5c0-0.7,0.2-1.6-0.7-1.6
			c-0.7,0-1,1.4-1,2.3C162.9,60.6,163.1,60.9,163.6,61.8z M168.6,52.5c0.1-0.3,1-1.4,1.6-2.1c0.2-0.2,2.2-1.7,2.3-2
			c0.2-0.3,1.2-3.1,1.4-3.4c0.5-1.5,1.7-1.4,1.7-2.9c0-0.4-0.1-0.8-0.7-0.8c-0.5,0-0.6,0.4-1.6,0.4c-1.8,0-0.8-1.1-2.2-1.1
			c0,0-0.5,0-0.6,0.1c0,2.6-1,5-1,5.6c0,0.1,0.3,1.3,0.3,1.4c0,0.5-0.4,1.4-0.7,1.6c-0.8,0-1.3,1.4-1.3,1.7
			C167.9,51.4,168.1,52,168.6,52.5z M169.5,54.8c-0.8,0-1.2,0.7-1.2,1.3h1.3L169.5,54.8L169.5,54.8z M171.6,74v-2.4h-1.1
			C170.5,72.7,170.3,74,171.6,74z"/>
	</g>
	<path class="st0" d="M18.8,30.7c-0.5-0.6-0.9-1-1.6-1c-0.7,0-1.3,0.6-1.3,1.4c0,1.7,4.7,1.7,4.7,4.9c0,1.8-1.4,3.2-3.2,3.2
		c-1.5,0-2.6-0.8-3.1-2.1l0.8-0.6h0.1c0.4,1,1.1,1.6,2.1,1.6c1.1,0,1.9-0.9,1.9-2c0-2.2-4.7-2.1-4.7-4.9c0-1.4,1.2-2.5,2.6-2.5
		c1.2,0,2,0.7,2.6,1.5l-0.8,0.6H18.8z"/>
	<path class="st0" d="M24,28.8L24,28.8l0.1,5.5c0,2.4,1.4,3.8,3.2,3.8c1.9,0,3.2-1.3,3.2-3.8v-5.4l0.1-0.1h1l0.1,0.1v5.6
		c0,3-1.9,4.8-4.4,4.8c-2.5,0-4.4-1.8-4.4-4.8v-5.6l0.1-0.1H24z"/>
	<path class="st0" d="M35.7,28.8l0.1,0.1l6.3,8.4v-8.4l0.1-0.1h1l0.1,0.1V39l-0.1,0.1h-1L42,39l-6.3-8.4V39l-0.1,0.1h-1L34.5,39
		V28.9l0.1-0.1H35.7z"/>
	<g>
		<path class="st1" d="M54.7,30.7c-0.5-0.6-0.9-1-1.6-1c-0.7,0-1.3,0.6-1.3,1.4c0,1.7,4.7,1.7,4.7,4.9c0,1.8-1.4,3.2-3.2,3.2
			c-1.5,0-2.6-0.8-3.1-2.1l0.8-0.6h0.1c0.4,1,1.1,1.6,2.1,1.6c1.1,0,1.9-0.9,1.9-2c0-2.2-4.7-2.1-4.7-4.9c0-1.4,1.2-2.5,2.6-2.5
			c1.2,0,2,0.7,2.6,1.5l-0.8,0.6H54.7z"/>
		<path class="st1" d="M59.9,28.8L59.9,28.8l0.1,5.5c0,2.4,1.4,3.8,3.2,3.8c1.9,0,3.2-1.3,3.2-3.8v-5.4l0.1-0.1h1l0.1,0.1v5.6
			c0,3-1.9,4.8-4.4,4.8c-2.5,0-4.4-1.8-4.4-4.8v-5.6l0.1-0.1H59.9z"/>
		<path class="st1" d="M73.2,28.8c2,0,3.3,1.2,3.3,2.8c0,1.3-0.8,2.2-2,2.6l3.5,4.7l-0.1,0.1h-1.3L76.5,39l-3.4-4.5h-1.6V39
			l-0.1,0.1h-1L70.4,39V28.9l0.1-0.1H73.2z M71.6,33.4h1.5c1.2,0,2.1-0.6,2.1-1.7c0-1.1-0.7-1.7-2-1.7h-1.6V33.4z"/>
		<path class="st1" d="M85.7,28.8L85.7,28.8l0.1,1.1L85.7,30h-4.8v2.9h3.6l0.1,0.1v1L84.5,34h-3.6v5l-0.1,0.1h-1L79.8,39V28.9
			l0.1-0.1H85.7z"/>
	</g>
	<path class="st1" d="M235,53.8c-0.5-0.6-0.9-1-1.6-1c-0.7,0-1.3,0.6-1.3,1.4c0,1.7,4.7,1.7,4.7,4.9c0,1.8-1.4,3.2-3.2,3.2
		c-1.5,0-2.6-0.8-3.1-2.1l0.8-0.6h0.1c0.4,1,1.1,1.6,2.1,1.6c1.1,0,1.9-0.9,1.9-2c0-2.2-4.7-2.1-4.7-4.9c0-1.4,1.2-2.5,2.6-2.5
		c1.2,0,2,0.7,2.6,1.5l-0.8,0.6H235z"/>
	<path class="st1" d="M240.2,51.9l0.1,0.1l6.3,8.4v-8.4l0.1-0.1h1l0.1,0.1V62l-0.1,0.1h-1l-0.1-0.1l-6.3-8.4V62l-0.1,0.1h-1
		l-0.1-0.1V51.9l0.1-0.1H240.2z"/>
	<path class="st1" d="M261.1,57c0,2.9-2.4,5.3-5.4,5.3c-3,0-5.4-2.4-5.4-5.3c0-2.9,2.4-5.3,5.4-5.3C258.7,51.6,261.1,54,261.1,57z
		 M251.6,57c0,2.3,1.9,4.2,4.1,4.2c2.3,0,4.1-1.9,4.1-4.2c0-2.3-1.8-4.2-4.1-4.2C253.4,52.8,251.6,54.7,251.6,57z"/>
	<path class="st1" d="M263.4,51.9L263.4,51.9l2.6,8.4l2.5-8.2l0.1-0.1h1.1l0.1,0.1l2.5,8.2l2.6-8.4l0.1-0.1h1.1l0.1,0.1L272.8,62
		l-0.1,0.1h-1.1l-0.1-0.1l-2.5-8.1l-2.5,8.1l-0.1,0.1h-1.1l-0.1-0.1l-3.1-10.1l0.1-0.1H263.4z"/>
	<g>
		<path class="st0" d="M191.3,53.8c-0.5-0.6-0.9-1-1.6-1c-0.7,0-1.3,0.6-1.3,1.4c0,1.7,4.7,1.7,4.7,4.9c0,1.8-1.4,3.2-3.2,3.2
			c-1.5,0-2.6-0.8-3.1-2.1l0.8-0.6h0.1c0.4,1,1.1,1.6,2.1,1.6c1.1,0,1.9-0.9,1.9-2c0-2.2-4.7-2.1-4.7-4.9c0-1.4,1.2-2.5,2.6-2.5
			c1.2,0,2,0.7,2.6,1.5l-0.8,0.6H191.3z"/>
		<path class="st0" d="M199.4,51.9L199.4,51.9l4.2,10.2l-0.1,0.1h-1.1l-0.1-0.1l-1.1-2.7h-4.7l-1.1,2.7l-0.1,0.1h-1.1l-0.1-0.1
			l4.1-10.1l0.1-0.1H199.4z M197,58.2h3.8l-1.9-4.8L197,58.2z"/>
		<path class="st0" d="M206.5,51.9l0.1,0.1l6.3,8.4v-8.4l0.1-0.1h1l0.1,0.1V62l-0.1,0.1h-1l-0.1-0.1l-6.3-8.4V62l-0.1,0.1h-1
			l-0.1-0.1V51.9l0.1-0.1H206.5z"/>
		<path class="st0" d="M220.2,51.9c3.1,0,5.4,2.3,5.4,5.1c0,2.9-2.3,5.1-5.4,5.1h-3.1L217,62V51.9l0.1-0.1H220.2z M218.1,61h2
			c2.4,0,4.1-1.8,4.1-4c0-2.2-1.7-4-4.1-4h-2V61z"/>
	</g>
</g>
</svg>
